<svg width="113" height="87" viewBox="0 0 113 87" fill="none" xmlns="http://www.w3.org/2000/svg">
<path d="M26.2 86.4C20.8 86.4 16.2 85 12.4 82.2C8.6 79.4 5.7 75.6 3.7 70.8C1.7 66 0.700001 60.7 0.700001 54.9C0.700001 47.3 2.1 40.1 4.9 33.3C7.7 26.5 11.7 20.3 16.9 14.7C22.3 8.9 28.7 4.3 36.1 0.899992L51.1 13.5C45.7 15.5 40.9 18.1 36.7 21.3C32.5 24.5 28.9 28.1 25.9 32.1C23.1 36.1 21.1 40.2 19.9 44.4L21.1 45.3C22.1 44.5 23.2 43.9 24.4 43.5C25.8 43.1 27.7 42.9 30.1 42.9C32.9 42.9 35.7 43.7 38.5 45.3C41.5 46.7 44 48.9 46 51.9C48 54.9 49 58.8 49 63.6C49 68 47.9 71.9 45.7 75.3C43.7 78.7 41 81.4 37.6 83.4C34.2 85.4 30.4 86.4 26.2 86.4ZM87.7 86.4C82.3 86.4 77.7 85 73.9 82.2C70.1 79.4 67.2 75.6 65.2 70.8C63.2 66 62.2 60.7 62.2 54.9C62.2 47.3 63.6 40.1 66.4 33.3C69.2 26.5 73.2 20.3 78.4 14.7C83.8 8.9 90.2 4.3 97.6 0.899992L112.9 13.5C107.5 15.5 102.6 18.1 98.2 21.3C94 24.5 90.5 28.1 87.7 32.1C84.9 36.1 82.8 40.2 81.4 44.4L82.6 45.3C83.6 44.5 84.7 43.9 85.9 43.5C87.3 43.1 89.2 42.9 91.6 42.9C94.4 42.9 97.2 43.7 100 45.3C103 46.7 105.5 48.9 107.5 51.9C109.5 54.9 110.5 58.8 110.5 63.6C110.5 68 109.5 71.9 107.5 75.3C105.5 78.7 102.7 81.4 99.1 83.4C95.7 85.4 91.9 86.4 87.7 86.4Z" fill="#F9785C"/>
</svg>
