<svg width="113" height="86" viewBox="0 0 113 86" fill="none" xmlns="http://www.w3.org/2000/svg">
<path d="M25.1 0.199988C30.7 0.199988 35.3 1.59999 38.9 4.39999C42.7 6.99999 45.6 10.7 47.6 15.5C49.6 20.1 50.6 25.4 50.6 31.4C50.6 38.8 49.2 46 46.4 53C43.6 59.8 39.5 66.1 34.1 71.9C28.9 77.5 22.6 82.1 15.2 85.7L0.2 72.8C5.6 70.8 10.4 68.2 14.6 65C18.8 61.8 22.3 58.2 25.1 54.2C28.1 50.2 30.2 46.1 31.4 41.9L30.2 41.3C29.2 41.9 28 42.4 26.6 42.8C25.4 43.2 23.6 43.4 21.2 43.4C18.4 43.4 15.5 42.7 12.5 41.3C9.7 39.7 7.3 37.4 5.3 34.4C3.3 31.4 2.3 27.5 2.3 22.7C2.3 18.3 3.3 14.4 5.3 11C7.5 7.59999 10.3 4.99999 13.7 3.19999C17.1 1.19999 20.9 0.199988 25.1 0.199988ZM86.6 0.199988C92.2 0.199988 96.8 1.59999 100.4 4.39999C104.2 6.99999 107.1 10.7 109.1 15.5C111.1 20.1 112.1 25.4 112.1 31.4C112.1 38.8 110.7 46 107.9 53C105.1 59.8 101 66.1 95.6 71.9C90.4 77.5 84.1 82.1 76.7 85.7L61.7 72.8C67.1 70.8 71.9 68.2 76.1 65C80.3 61.8 83.8 58.2 86.6 54.2C89.6 50.2 91.7 46.1 92.9 41.9L91.7 41.3C90.7 41.9 89.5 42.4 88.1 42.8C86.9 43.2 85.1 43.4 82.7 43.4C79.9 43.4 77 42.7 74 41.3C71.2 39.7 68.8 37.4 66.8 34.4C64.8 31.4 63.8 27.5 63.8 22.7C63.8 18.3 64.8 14.4 66.8 11C69 7.59999 71.8 4.99999 75.2 3.19999C78.6 1.19999 82.4 0.199988 86.6 0.199988Z" fill="#F9785C"/>
</svg>
