<svg width="51" height="85" viewBox="0 0 51 85" fill="#FFFCFA" xmlns="http://www.w3.org/2000/svg">
<path d="M37.7753 0.00915691C32.3203 0.438742 27.3831 3.28963 24.1249 7.72867C20.5997 12.529 20.2749 18.6408 22.8995 23.939C25.5176 29.221 30.3905 32.8399 34.8484 36.4263C39.3063 40.0127 43.671 44.2955 45.9193 49.9094C49.8529 59.7345 46.3664 71.4537 37.7496 77.5005C29.8372 83.0525 17.795 83.6025 10.2783 76.9895C5.27355 72.583 2.8709 65.5697 4.40834 58.999C6.03262 52.0541 10.9505 46.4076 15.4213 41.1224L12.7324 40.4032C17.1357 54.6088 21.5389 68.8111 25.9422 83.0167C26.5147 84.8653 28.8948 84.3511 29.1007 82.5839C30.6832 69.0259 32.2817 55.4615 33.9961 41.9198C35.7104 28.3781 37.904 15.2497 39.5476 1.86744C39.8017 -0.205636 36.582 -0.186109 36.3312 1.86744C34.6908 15.2464 32.4747 28.5473 30.7797 41.9198C29.0846 55.2922 27.4668 69.0259 25.8843 82.5839L29.0428 82.1511C24.6395 67.9455 20.2363 53.7431 15.833 39.5375C15.4953 38.4505 13.9707 37.8452 13.1441 38.8183C9.00136 43.7162 4.76214 48.7378 2.36592 54.7845C0.0179427 60.7076 0.249524 67.2653 3.12499 72.9638C8.12329 82.8605 19.6959 86.6259 30.0013 84.3641C40.4224 82.0762 48.7497 73.3804 50.4415 62.6765C51.3325 57.0399 50.3901 51.3869 47.8041 46.3132C45.0219 40.8556 40.5897 36.8917 35.9034 33.1458C30.651 28.9476 24.1185 23.7926 24.3211 16.2911C24.5077 9.34938 31.2557 3.77454 37.7721 3.26034C39.821 3.09761 39.8403 -0.156819 37.7721 0.00590247L37.7753 0.00915691Z" fill="#FFFCFA"/>
</svg>
