<svg width="72" height="126" viewBox="0 0 72 126" fill="none" xmlns="http://www.w3.org/2000/svg">
<path fill-rule="evenodd" clip-rule="evenodd" d="M14.0065 3.40779C11.0775 0.47884 6.32881 0.478813 3.39986 3.40773C0.470906 6.33664 0.470878 11.0854 3.39979 14.0143L53.129 63.7441L4.19187 112.679C1.26287 115.608 1.26277 120.357 4.19164 123.286C7.12051 126.215 11.8692 126.215 14.7982 123.286L68.5395 69.5469C71.0388 67.0478 71.4055 63.2236 69.6397 60.3355C69.2978 59.1687 68.6666 58.0686 67.7463 57.1482L14.0065 3.40779Z" fill="black"/>
<path d="M3.39986 3.40773L3.0463 3.05417L3.0463 3.05417L3.39986 3.40773ZM14.0065 3.40779L13.6529 3.76134L13.6529 3.76134L14.0065 3.40779ZM3.39979 14.0143L3.04624 14.3679L3.04624 14.3679L3.39979 14.0143ZM53.129 63.7441L53.4825 64.0977C53.5763 64.0039 53.629 63.8767 53.629 63.7441C53.629 63.6115 53.5763 63.4843 53.4825 63.3905L53.129 63.7441ZM4.19187 112.679L3.83832 112.326L3.83832 112.326L4.19187 112.679ZM4.19164 123.286L3.83808 123.639L3.83808 123.639L4.19164 123.286ZM14.7982 123.286L14.4447 122.932L14.4447 122.932L14.7982 123.286ZM68.5395 69.5469L68.8931 69.9005L68.8931 69.9005L68.5395 69.5469ZM69.6397 60.3355L69.1599 60.4762C69.1723 60.5184 69.1902 60.5588 69.2131 60.5964L69.6397 60.3355ZM67.7463 57.1482L67.3927 57.5018L67.3927 57.5018L67.7463 57.1482ZM3.75341 3.76128C6.48709 1.02763 10.9192 1.02765 13.6529 3.76134L14.36 3.05424C11.2358 -0.0699743 6.17052 -0.0700037 3.0463 3.05417L3.75341 3.76128ZM3.75335 13.6608C1.01969 10.9271 1.01972 6.49494 3.75341 3.76128L3.0463 3.05417C-0.0779088 6.17835 -0.0779383 11.2437 3.04624 14.3679L3.75335 13.6608ZM53.4825 63.3905L3.75335 13.6608L3.04624 14.3679L52.7754 64.0976L53.4825 63.3905ZM4.54541 113.033L53.4825 64.0977L52.7754 63.3905L3.83832 112.326L4.54541 113.033ZM4.5452 122.932C1.81159 120.198 1.81168 115.766 4.54541 113.033L3.83832 112.326C0.714059 115.45 0.713953 120.515 3.83808 123.639L4.5452 122.932ZM14.4447 122.932C11.711 125.666 7.27881 125.666 4.5452 122.932L3.83808 123.639C6.9622 126.763 12.0275 126.764 15.1518 123.639L14.4447 122.932ZM68.186 69.1934L14.4447 122.932L15.1518 123.639L68.8931 69.9005L68.186 69.1934ZM69.2131 60.5964C70.8612 63.2919 70.5182 66.8613 68.186 69.1934L68.8931 69.9005C71.5594 67.2343 71.9498 63.1553 70.0663 60.0747L69.2131 60.5964ZM67.3927 57.5018C68.2523 58.3614 68.8409 59.3877 69.1599 60.4762L70.1195 60.1949C69.7546 58.9497 69.0809 57.7758 68.0998 56.7947L67.3927 57.5018ZM13.6529 3.76134L67.3927 57.5018L68.0998 56.7947L14.36 3.05424L13.6529 3.76134Z" fill="black"/>
</svg>
