<svg width="72" height="126" viewBox="0 0 72 126" fill="none" xmlns="http://www.w3.org/2000/svg">
<path fill-rule="evenodd" clip-rule="evenodd" d="M57.933 3.40779C60.8619 0.47884 65.6106 0.478813 68.5396 3.40773C71.4685 6.33664 71.4686 11.0854 68.5397 14.0143L18.8105 63.7441L67.7476 112.679C70.6766 115.608 70.6767 120.357 67.7478 123.286C64.8189 126.215 60.0702 126.215 57.1412 123.286L3.39994 69.5469C0.900665 67.0478 0.533913 63.2236 2.29973 60.3355C2.64166 59.1687 3.27282 58.0686 4.1932 57.1482L57.933 3.40779Z" fill="black"/>
<path d="M68.5396 3.40773L68.8931 3.05417L68.8931 3.05417L68.5396 3.40773ZM57.933 3.40779L58.2866 3.76134L58.2866 3.76134L57.933 3.40779ZM68.5397 14.0143L68.8932 14.3679L68.8932 14.3679L68.5397 14.0143ZM18.8105 63.7441L18.4569 64.0977C18.3632 64.0039 18.3105 63.8767 18.3105 63.7441C18.3105 63.6115 18.3632 63.4843 18.4569 63.3905L18.8105 63.7441ZM67.7476 112.679L68.1011 112.326L68.1011 112.326L67.7476 112.679ZM67.7478 123.286L68.1014 123.639L68.1014 123.639L67.7478 123.286ZM57.1412 123.286L57.4948 122.932L57.4948 122.932L57.1412 123.286ZM3.39994 69.5469L3.04639 69.9005L3.04639 69.9005L3.39994 69.5469ZM2.29973 60.3355L2.77955 60.4762C2.76717 60.5184 2.74927 60.5588 2.72631 60.5964L2.29973 60.3355ZM4.1932 57.1482L4.54675 57.5018L4.54675 57.5018L4.1932 57.1482ZM68.186 3.76128C65.4524 1.02763 61.0202 1.02765 58.2866 3.76134L57.5794 3.05424C60.7036 -0.0699743 65.7689 -0.0700037 68.8931 3.05417L68.186 3.76128ZM68.1861 13.6608C70.9198 10.9271 70.9197 6.49494 68.186 3.76128L68.8931 3.05417C72.0174 6.17835 72.0174 11.2437 68.8932 14.3679L68.1861 13.6608ZM18.4569 63.3905L68.1861 13.6608L68.8932 14.3679L19.164 64.0976L18.4569 63.3905ZM67.394 113.033L18.4569 64.0977L19.164 63.3905L68.1011 112.326L67.394 113.033ZM67.3943 122.932C70.1279 120.198 70.1278 115.766 67.394 113.033L68.1011 112.326C71.2254 115.45 71.2255 120.515 68.1014 123.639L67.3943 122.932ZM57.4948 122.932C60.2285 125.666 64.6606 125.666 67.3943 122.932L68.1014 123.639C64.9772 126.763 59.9119 126.764 56.7877 123.639L57.4948 122.932ZM3.75349 69.1934L57.4948 122.932L56.7877 123.639L3.04639 69.9005L3.75349 69.1934ZM2.72631 60.5964C1.07821 63.2919 1.42129 66.8613 3.75349 69.1934L3.04639 69.9005C0.380037 67.2343 -0.0103859 63.1553 1.87315 60.0747L2.72631 60.5964ZM4.54675 57.5018C3.68712 58.3614 3.09851 59.3877 2.77955 60.4762L1.81991 60.1949C2.18482 58.9497 2.85852 57.7758 3.83964 56.7947L4.54675 57.5018ZM58.2866 3.76134L4.54675 57.5018L3.83964 56.7947L57.5794 3.05424L58.2866 3.76134Z" fill="black"/>
</svg>
