<svg width="50" height="50" viewBox="0 0 50 50" fill="none" xmlns="http://www.w3.org/2000/svg">
<path fill-rule="evenodd" clip-rule="evenodd" d="M3.65039 0H45.7715C47.7891 0 49.4258 1.59497 49.4258 3.56299V46.176C49.4258 48.1411 47.7891 49.738 45.7715 49.738H3.65039C1.63477 49.738 0 48.1421 0 46.176V3.56299C0 1.59595 1.63477 0 3.65039 0ZM27.5566 37.6536C31.0586 39.2178 34.6035 40 38.1914 40C38.709 40 39.1387 39.8279 39.4824 39.4834C39.8281 39.1389 40 38.7083 40 38.1917V31.2166C40 30.8435 39.8711 30.5063 39.6133 30.2048C39.3535 29.9036 39.0234 29.6953 38.623 29.5806L32.6797 28.375C32.2793 28.3176 31.8691 28.3535 31.4531 28.4827C31.3398 28.5176 31.2324 28.5574 31.1309 28.6018C30.8594 28.7217 30.6289 28.8757 30.4414 29.064L26.3945 33.1111C25.3027 32.4797 24.2695 31.7834 23.2949 31.0229C22.3184 30.2622 21.3848 29.437 20.4961 28.5471C19.5488 27.6287 18.6797 26.6743 17.8906 25.6841C17.5273 25.2278 17.1855 24.7639 16.8672 24.2922C16.4961 23.7402 16.1562 23.178 15.8457 22.6055L20.0215 18.3862C20.252 18.1565 20.4102 17.8838 20.4961 17.5681C20.5391 17.4124 20.5625 17.2393 20.5703 17.0488C20.5781 16.8528 20.5684 16.6384 20.5391 16.4055L19.4199 10.3777C19.3613 10.0046 19.1758 9.68164 18.8594 9.40894C18.5449 9.13623 18.1855 9 17.7832 9H10.8086C10.291 9 9.86133 9.17212 9.51758 9.5166C9.38086 9.65283 9.27148 9.80249 9.18945 9.96558C9.0625 10.2151 9 10.4961 9 10.8083C9 14.3962 9.78125 17.9412 11.3457 21.4431C12.9102 24.9448 15.1289 28.1311 17.998 31.0015C20.8691 33.8718 24.0547 36.0891 27.5566 37.6536ZM17.0508 16.4917L14.209 19.3333C13.7227 18.2139 13.3477 17.0801 13.0898 15.9319C12.832 14.7837 12.6309 13.6213 12.4883 12.4443H16.3203L17.0508 16.4917ZM33.0469 35.9097C31.8848 35.6228 30.7422 35.2351 29.623 34.7473L32.5078 31.8625L36.5547 32.6807V36.4695C35.3789 36.3833 34.209 36.1968 33.0469 35.9097Z" fill="black"/>
</svg>
