<svg width="50" height="50" viewBox="0 0 50 50" fill="none" xmlns="http://www.w3.org/2000/svg">
<path fill-rule="evenodd" clip-rule="evenodd" d="M3.65039 0H45.7715C47.7891 0 49.4258 1.59497 49.4258 3.56299V46.176C49.4258 48.1411 47.7891 49.738 45.7715 49.738H3.65039C1.63477 49.738 0 48.1421 0 46.176V3.56299C0 1.59595 1.63477 0 3.65039 0ZM9.91016 36.0552C10.5176 36.6665 11.248 36.9722 12.0996 36.9722H36.9004C37.752 36.9722 38.4824 36.6665 39.0898 36.0552C39.6973 35.4441 40 34.7092 40 33.8506V15.1216C40 14.7693 39.9492 14.438 39.8457 14.1274C39.6992 13.6809 39.4473 13.2776 39.0898 12.917C38.9512 12.7778 38.8066 12.6545 38.6562 12.5471C38.1445 12.1824 37.5586 12 36.9004 12H12.0996C11.248 12 10.5176 12.3057 9.91016 12.917C9.30273 13.5283 9 14.2632 9 15.1216V33.8506C9 34.1865 9.04688 34.5034 9.13867 34.8013C9.2832 35.2651 9.54102 35.6831 9.91016 36.0552ZM12.0996 18.2432L24.5 26.0469L36.9004 18.2432V33.8506H12.0996V18.2432ZM36.9004 15.1216L24.5 22.9253L12.0996 15.1216H36.9004Z" fill="black"/>
</svg>
