<svg width="50" height="50" viewBox="0 0 50 50" fill="none" xmlns="http://www.w3.org/2000/svg">
<path fill-rule="evenodd" clip-rule="evenodd" d="M3.65039 0H45.7715C47.7891 0 49.4258 1.59497 49.4258 3.56299V46.176C49.4258 48.1411 47.7891 49.738 45.7715 49.738H3.65039C1.63477 49.738 0 48.1421 0 46.176V3.56299C0 1.59595 1.63477 0 3.65039 0ZM13.0069 33.5612C12.9662 33.6531 12.8216 33.6807 12.6899 33.6179C12.5551 33.5579 12.48 33.4326 12.5235 33.3404C12.5633 33.2454 12.7082 33.2194 12.8421 33.2828C12.9769 33.3431 13.0535 33.4696 13.0066 33.5615L13.0069 33.5612ZM13.7563 34.3973C13.6683 34.4791 13.4959 34.4411 13.3788 34.3115C13.2575 34.1828 13.2349 34.0103 13.3246 33.9273C13.4159 33.8458 13.5832 33.8844 13.7045 34.0131C13.8252 34.1436 13.8491 34.3146 13.7566 34.3976L13.7563 34.3973ZM14.486 35.4624C14.3726 35.5415 14.187 35.4677 14.0724 35.3031C13.9591 35.1383 13.9591 34.9407 14.0755 34.862C14.1897 34.783 14.3726 34.8543 14.4891 35.0173C14.6018 35.1843 14.6018 35.3822 14.486 35.4624ZM15.485 36.4921C15.3839 36.6039 15.1676 36.5739 15.0095 36.4216C14.8481 36.2724 14.8031 36.0601 14.9045 35.9486C15.0074 35.8365 15.2246 35.8677 15.3836 36.0191C15.545 36.168 15.5938 36.3806 15.4856 36.4918L15.485 36.4921ZM16.8636 37.0898C16.8185 37.2347 16.6108 37.3005 16.401 37.2387C16.1917 37.1752 16.0548 37.0058 16.0977 36.8594C16.1406 36.7133 16.3498 36.645 16.5609 36.7108C16.7701 36.7739 16.9071 36.9424 16.8636 37.0898ZM18.3779 37.2004C18.3831 37.3529 18.2054 37.4791 17.9857 37.4822C17.7642 37.4874 17.585 37.3637 17.5829 37.2135C17.5829 37.0594 17.7569 36.9348 17.9781 36.9305C18.1977 36.9265 18.3782 37.049 18.3782 37.2001L18.3779 37.2004ZM19.7865 36.9608C19.8128 37.1094 19.6599 37.2622 19.4415 37.303C19.2271 37.3428 19.0279 37.2503 19.0004 37.1029C18.974 36.9504 19.1296 36.7975 19.3441 36.758C19.5628 36.7203 19.7589 36.8098 19.7865 36.9608ZM6 25.4998C6 15.2822 14.284 7 24.4998 7C34.7166 7 42.9997 15.2828 43 25.4998C43 33.6708 37.7054 40.6029 30.3591 43.0518C29.4217 43.2335 29.0884 42.6567 29.0884 42.1644C29.0884 41.9623 29.0907 41.6082 29.0939 41.1348C29.1002 40.1806 29.1098 38.742 29.1098 37.0875C29.1098 35.3619 28.5185 34.2357 27.8547 33.6616C31.9742 33.2033 36.302 31.6391 36.302 24.5336C36.302 22.5139 35.5842 20.8635 34.398 19.5677C34.5901 19.102 35.2233 17.2201 34.2163 14.6722C34.2163 14.6722 32.665 14.175 29.134 16.5685C27.6552 16.1583 26.0714 15.9528 24.4998 15.9457C22.9274 15.9528 21.3444 16.1589 19.8685 16.5691C16.3332 14.1756 14.78 14.6728 14.78 14.6728C13.7755 17.2211 14.4087 19.1027 14.6011 19.5683C13.4176 20.8642 12.6947 22.5145 12.6947 24.5342C12.6947 31.6229 17.0145 33.2094 21.1236 33.6766C20.5945 34.1386 20.1151 34.955 19.949 36.1507C18.8933 36.6231 16.2155 37.4404 14.5655 34.6128C14.5655 34.6128 13.5871 32.8366 11.7297 32.7064C11.7297 32.7064 9.92434 32.6825 11.6031 33.8307C11.6031 33.8307 12.8157 34.3993 13.6572 36.5376C13.6572 36.5376 14.7432 39.8395 19.8899 38.7204C19.8942 39.5605 19.9013 40.3746 19.9068 41.0135C19.9114 41.5501 19.915 41.9633 19.915 42.1647C19.915 42.6533 19.5756 43.2262 18.6513 43.0546C11.3008 40.6081 6 33.6739 6 25.4998Z" fill="black"/>
</svg>
