<svg width="1261" height="1440" viewBox="0 0 1261 1440" fill="none" xmlns="http://www.w3.org/2000/svg">
<path d="M797.264 22.2466C851.198 12.4403 891.402 -10.8563 942.264 21.8022C993.344 54.601 1014.56 134.638 979.93 187.802C940.386 248.517 848.1 267.381 781.597 271.135C701.416 275.662 626.263 259.584 555.486 221.247C497.815 190.008 436.247 166.042 369.486 172.691C286.786 180.928 210.115 204.113 143.708 255.247C-2.76709 368.033 -12.4459 557.309 20.8192 724.691C36.878 805.495 69.8853 911.167 140.264 960.802C212.959 1012.07 289.204 975.835 337.93 908.247C353.079 887.234 369.081 858.006 355.486 832.247C331.835 787.435 278.789 796.331 243.041 819.024C124.158 894.496 77.3546 1070.06 101.708 1202.14C148.87 1457.9 478.025 1453.43 671.486 1414.91C738.908 1401.49 803.115 1381.53 865.819 1353.36C921.489 1328.35 979.856 1303.63 1041.49 1299.14C1136.65 1292.2 1210.29 1325.59 1255.26 1410.25" stroke="#FFF3EE" stroke-width="10" stroke-linecap="round"/>
</svg>
