<svg width="2010" height="1699" viewBox="0 0 2010 1699" fill="none" xmlns="http://www.w3.org/2000/svg">
<path d="M806 6C846.809 19.6032 889.136 31.0257 905.555 76C924.98 129.207 895.449 197.685 847.111 225.556C780.034 264.231 685.204 277.271 609.333 280.444C503.123 284.887 391.348 305.59 292.777 346.222C251.882 363.08 207.813 381.754 170.333 405.444C135.363 427.548 103.112 466.38 78.2218 499.222C24.923 569.547 9.88004 664.644 6.44399 750.889C2.57453 848.012 14.6197 967.272 60.444 1054C115.024 1157.3 194.376 1251.85 300.444 1304.89C355.574 1332.45 413.21 1359.12 475.111 1365.56C548.31 1373.17 623.685 1363.29 694 1342.67C764.975 1321.85 827.51 1294.95 880.888 1242.56C896.806 1226.93 931.615 1188.01 896.111 1172.44C852.767 1153.44 796.658 1183.9 758.777 1203.33C734.792 1215.64 695.162 1233.86 689.222 1264.22C683.366 1294.15 708.775 1328.09 723.888 1351.44C749.491 1391.01 782.788 1418.19 824.444 1440C923.205 1491.71 1031.46 1504.47 1141.56 1495.56C1212.11 1489.84 1275.29 1474.37 1340.67 1448C1406.8 1421.32 1474.41 1402.23 1542 1380C1648.54 1344.95 1760.28 1332.41 1867.67 1373.22C1915.53 1391.41 1960.48 1426.27 1983.89 1472.67C2016.54 1537.37 2002.26 1625.57 1992 1694" stroke="#FFF3EE" stroke-width="10" stroke-linecap="round"/>
</svg>
