<svg width="50" height="51" viewBox="0 0 50 51" fill="none" xmlns="http://www.w3.org/2000/svg">
<path d="M27.0715 23.1009V23.0239C27.0555 23.0499 27.0385 23.0759 27.0215 23.1009H27.0715Z" fill="black"/>
<path d="M46.2651 0.666992H4.14514C2.12914 0.666992 0.494141 2.26299 0.494141 4.22999V46.843C0.494141 48.809 2.12914 50.405 4.14514 50.405H46.2651C48.2841 50.405 49.9191 48.808 49.9191 46.843V4.22999C49.9191 2.26199 48.2831 0.666992 46.2651 0.666992ZM15.4751 42.304H8.01014V19.845H15.4751V42.304ZM11.7431 16.777H11.6931C9.18914 16.777 7.56914 15.052 7.56914 12.897C7.56914 10.694 9.23914 9.01699 11.7921 9.01699C14.3461 9.01699 15.9171 10.694 15.9671 12.897C15.9671 15.052 14.3451 16.777 11.7431 16.777ZM42.3941 42.304H34.9291V30.286C34.9291 27.268 33.8491 25.208 31.1481 25.208C29.0861 25.208 27.8581 26.597 27.3171 27.939C27.1201 28.418 27.0721 29.088 27.0721 29.76V42.303H19.6071C19.6071 42.303 19.7051 21.949 19.6071 19.844H27.0721V23.023C28.0641 21.493 29.8381 19.314 33.8011 19.314C38.7121 19.314 42.3951 22.525 42.3951 29.424L42.3941 42.304Z" fill="black"/>
</svg>
