<svg width="115" height="115" viewBox="0 0 115 115" fill="none" xmlns="http://www.w3.org/2000/svg">
<circle cx="57.3421" cy="57.3421" r="57.3421" fill="#FA8F6F"/>
<path d="M19.3984 56.9922C19.5651 56.9922 19.7396 57.0052 19.9219 57.0312C20.1042 57.0521 20.2396 57.0703 20.3281 57.0859L20.0547 59.9688C19.9557 59.9427 19.8281 59.9219 19.6719 59.9062C19.5156 59.8854 19.2969 59.875 19.0156 59.875C18.8229 59.875 18.6172 59.8932 18.3984 59.9297C18.1797 59.9661 17.9714 60.0443 17.7734 60.1641C17.5807 60.2786 17.4219 60.4557 17.2969 60.6953C17.1719 60.9297 17.1094 61.2474 17.1094 61.6484V66H14.0547V57.1484H16.3281L16.8047 58.5625H16.9531C17.1146 58.2708 17.3203 58.0078 17.5703 57.7734C17.8255 57.5339 18.1094 57.3438 18.4219 57.2031C18.7396 57.0625 19.0651 56.9922 19.3984 56.9922ZM25.5547 56.9922C26.4141 56.9922 27.1562 57.1432 27.7812 57.4453C28.4062 57.7422 28.888 58.1901 29.2266 58.7891C29.5651 59.388 29.7344 60.138 29.7344 61.0391V62.3984H24.2734C24.2995 62.862 24.4714 63.2422 24.7891 63.5391C25.112 63.8359 25.5859 63.9844 26.2109 63.9844C26.763 63.9844 27.2682 63.9297 27.7266 63.8203C28.1901 63.7109 28.6667 63.5417 29.1562 63.3125V65.5078C28.7292 65.7318 28.263 65.8958 27.7578 66C27.2526 66.1042 26.6146 66.1562 25.8438 66.1562C24.9531 66.1562 24.1562 65.9974 23.4531 65.6797C22.75 65.362 22.1953 64.8698 21.7891 64.2031C21.388 63.5365 21.1875 62.6797 21.1875 61.6328C21.1875 60.5703 21.3698 59.6979 21.7344 59.0156C22.099 58.3281 22.6094 57.8203 23.2656 57.4922C23.9219 57.1589 24.6849 56.9922 25.5547 56.9922ZM25.6641 59.0703C25.3047 59.0703 25.0026 59.1849 24.7578 59.4141C24.5182 59.638 24.3776 59.9922 24.3359 60.4766H26.9609C26.9557 60.2161 26.9036 59.9792 26.8047 59.7656C26.7057 59.5521 26.5599 59.3828 26.3672 59.2578C26.1797 59.1328 25.9453 59.0703 25.6641 59.0703ZM35.7812 56.9922C36.901 56.9922 37.776 57.2708 38.4062 57.8281C39.0365 58.3802 39.3516 59.1693 39.3516 60.1953V66H37.2344L36.6484 64.8281H36.5859C36.3359 65.1406 36.0781 65.3958 35.8125 65.5938C35.5521 65.7865 35.2526 65.9271 34.9141 66.0156C34.5755 66.1094 34.1615 66.1562 33.6719 66.1562C33.1615 66.1562 32.7031 66.0521 32.2969 65.8438C31.8906 65.6354 31.5703 65.3203 31.3359 64.8984C31.1016 64.4766 30.9844 63.9427 30.9844 63.2969C30.9844 62.349 31.3125 61.6458 31.9688 61.1875C32.625 60.7292 33.5755 60.4714 34.8203 60.4141L36.2969 60.3672V60.2422C36.2969 59.8464 36.1979 59.5651 36 59.3984C35.8073 59.2318 35.5469 59.1484 35.2188 59.1484C34.8698 59.1484 34.4792 59.2109 34.0469 59.3359C33.6198 59.4557 33.1901 59.612 32.7578 59.8047L31.875 57.7891C32.3854 57.5286 32.9635 57.3307 33.6094 57.1953C34.2552 57.0599 34.9792 56.9922 35.7812 56.9922ZM36.3125 62.0469L35.6094 62.0781C35.0469 62.099 34.651 62.1979 34.4219 62.375C34.1979 62.5469 34.0859 62.7943 34.0859 63.1172C34.0859 63.4193 34.1667 63.6432 34.3281 63.7891C34.4896 63.9297 34.7031 64 34.9688 64C35.3385 64 35.6536 63.8828 35.9141 63.6484C36.1797 63.4141 36.3125 63.1094 36.3125 62.7344V62.0469ZM44.1797 66.1562C43.2682 66.1562 42.5182 65.7682 41.9297 64.9922C41.3411 64.2161 41.0469 63.0807 41.0469 61.5859C41.0469 60.0755 41.349 58.9323 41.9531 58.1562C42.5573 57.3802 43.3385 56.9922 44.2969 56.9922C44.6927 56.9922 45.0339 57.0495 45.3203 57.1641C45.6068 57.2786 45.8542 57.4349 46.0625 57.6328C46.276 57.8255 46.4609 58.0443 46.6172 58.2891H46.6797C46.6432 58.0651 46.6094 57.7578 46.5781 57.3672C46.5469 56.9714 46.5312 56.5859 46.5312 56.2109V53.8438H49.6094V66H47.3047L46.6484 64.8828H46.5312C46.3906 65.1172 46.2135 65.3307 46 65.5234C45.7917 65.7161 45.5365 65.8698 45.2344 65.9844C44.9375 66.099 44.5859 66.1562 44.1797 66.1562ZM45.4297 63.7422C45.9193 63.7422 46.263 63.5885 46.4609 63.2812C46.6641 62.9688 46.7734 62.4948 46.7891 61.8594V61.6172C46.7891 60.9193 46.6901 60.3854 46.4922 60.0156C46.2995 59.6406 45.9349 59.4531 45.3984 59.4531C45.0339 59.4531 44.7318 59.6302 44.4922 59.9844C44.2526 60.3385 44.1328 60.888 44.1328 61.6328C44.1328 62.3672 44.2526 62.9036 44.4922 63.2422C44.737 63.5755 45.0495 63.7422 45.4297 63.7422ZM66.6875 56.9922C67.6979 56.9922 68.4688 57.25 69 57.7656C69.5365 58.2812 69.8047 59.1068 69.8047 60.2422V66H66.75V61.1875C66.75 60.5156 66.6589 60.0495 66.4766 59.7891C66.2995 59.5234 66.0339 59.3906 65.6797 59.3906C65.1849 59.3906 64.8411 59.6068 64.6484 60.0391C64.4609 60.4714 64.3672 61.0833 64.3672 61.875V66H61.3047V61.1875C61.3047 60.7604 61.2656 60.4167 61.1875 60.1562C61.1146 59.8906 61.0026 59.6979 60.8516 59.5781C60.7005 59.4531 60.5104 59.3906 60.2812 59.3906C59.9323 59.3906 59.6589 59.4974 59.4609 59.7109C59.2682 59.9193 59.1328 60.2266 59.0547 60.6328C58.9766 61.0391 58.9375 61.5365 58.9375 62.125V66H55.8828V57.1484H58.1875L58.6328 58.2422H58.7188C58.875 58.0026 59.0755 57.7891 59.3203 57.6016C59.5703 57.4141 59.8646 57.2656 60.2031 57.1562C60.5469 57.0469 60.9375 56.9922 61.375 56.9922C62.026 56.9922 62.5625 57.1016 62.9844 57.3203C63.4062 57.5391 63.75 57.8411 64.0156 58.2266H64.1094C64.3906 57.8307 64.7526 57.526 65.1953 57.3125C65.638 57.099 66.1354 56.9922 66.6875 56.9922ZM80.3359 61.5547C80.3359 62.2943 80.2344 62.9505 80.0312 63.5234C79.8281 64.0964 79.5339 64.5781 79.1484 64.9688C78.763 65.3594 78.2969 65.6562 77.75 65.8594C77.2031 66.0573 76.5859 66.1562 75.8984 66.1562C75.2578 66.1562 74.6693 66.0573 74.1328 65.8594C73.6016 65.6562 73.138 65.3594 72.7422 64.9688C72.3464 64.5781 72.0391 64.0964 71.8203 63.5234C71.6068 62.9505 71.5 62.2943 71.5 61.5547C71.5 60.5755 71.6771 59.7474 72.0312 59.0703C72.3906 58.3932 72.901 57.8776 73.5625 57.5234C74.2292 57.1693 75.0234 56.9922 75.9453 56.9922C76.7943 56.9922 77.5495 57.1693 78.2109 57.5234C78.8724 57.8776 79.3906 58.3932 79.7656 59.0703C80.1458 59.7474 80.3359 60.5755 80.3359 61.5547ZM74.6016 61.5547C74.6016 62.0599 74.6458 62.487 74.7344 62.8359C74.8229 63.1797 74.9635 63.4427 75.1562 63.625C75.3542 63.8021 75.612 63.8906 75.9297 63.8906C76.2474 63.8906 76.5 63.8021 76.6875 63.625C76.875 63.4427 77.0104 63.1797 77.0938 62.8359C77.1823 62.487 77.2266 62.0599 77.2266 61.5547C77.2266 61.0495 77.1823 60.6276 77.0938 60.2891C77.0104 59.9505 76.8724 59.6953 76.6797 59.5234C76.4922 59.3516 76.237 59.2656 75.9141 59.2656C75.4505 59.2656 75.1146 59.4583 74.9062 59.8438C74.7031 60.2292 74.6016 60.7995 74.6016 61.5547ZM87.4297 56.9922C87.5964 56.9922 87.7708 57.0052 87.9531 57.0312C88.1354 57.0521 88.2708 57.0703 88.3594 57.0859L88.0859 59.9688C87.987 59.9427 87.8594 59.9219 87.7031 59.9062C87.5469 59.8854 87.3281 59.875 87.0469 59.875C86.8542 59.875 86.6484 59.8932 86.4297 59.9297C86.2109 59.9661 86.0026 60.0443 85.8047 60.1641C85.612 60.2786 85.4531 60.4557 85.3281 60.6953C85.2031 60.9297 85.1406 61.2474 85.1406 61.6484V66H82.0859V57.1484H84.3594L84.8359 58.5625H84.9844C85.1458 58.2708 85.3516 58.0078 85.6016 57.7734C85.8568 57.5339 86.1406 57.3438 86.4531 57.2031C86.7708 57.0625 87.0964 56.9922 87.4297 56.9922ZM93.5859 56.9922C94.4453 56.9922 95.1875 57.1432 95.8125 57.4453C96.4375 57.7422 96.9193 58.1901 97.2578 58.7891C97.5964 59.388 97.7656 60.138 97.7656 61.0391V62.3984H92.3047C92.3307 62.862 92.5026 63.2422 92.8203 63.5391C93.1432 63.8359 93.6172 63.9844 94.2422 63.9844C94.7943 63.9844 95.2995 63.9297 95.7578 63.8203C96.2214 63.7109 96.6979 63.5417 97.1875 63.3125V65.5078C96.7604 65.7318 96.2943 65.8958 95.7891 66C95.2839 66.1042 94.6458 66.1562 93.875 66.1562C92.9844 66.1562 92.1875 65.9974 91.4844 65.6797C90.7812 65.362 90.2266 64.8698 89.8203 64.2031C89.4193 63.5365 89.2188 62.6797 89.2188 61.6328C89.2188 60.5703 89.401 59.6979 89.7656 59.0156C90.1302 58.3281 90.6406 57.8203 91.2969 57.4922C91.9531 57.1589 92.7161 56.9922 93.5859 56.9922ZM93.6953 59.0703C93.3359 59.0703 93.0339 59.1849 92.7891 59.4141C92.5495 59.638 92.4089 59.9922 92.3672 60.4766H94.9922C94.987 60.2161 94.9349 59.9792 94.8359 59.7656C94.737 59.5521 94.5911 59.3828 94.3984 59.2578C94.2109 59.1328 93.9766 59.0703 93.6953 59.0703Z" fill="#FFF6F3"/>
</svg>
