<svg width="780" height="80" viewBox="0 0 780 80" fill="none" xmlns="http://www.w3.org/2000/svg">
<path d="M12.293 16.25L17.3361 72.8081L39.9648 79.0894L62.6567 72.8L67.7055 16.25H12.293ZM55.5492 47.805L54.0805 61.4875L54.0861 62.6594L39.9992 66.5937L39.988 66.6037L25.7886 62.7131L24.828 51.875H31.7911L32.2848 57.3537L40.0017 59.4131L39.9992 59.4225V59.4025L47.7455 57.2181L48.563 48.125H32.3711L32.2323 46.6531L31.9161 43.1237L31.7505 41.25H49.1792L49.813 34.375H23.2673L23.128 32.7569L22.8117 28.9881L22.6461 26.875H57.3942L57.2273 28.9587L55.5492 47.805ZM55.6242 8.98375L51.1561 3.75H55.6242V0.625H45.6242V3.35187L50.868 8.125H45.6242V11.25H55.6242V8.98375ZM43.7492 8.98375L39.4948 3.75H43.7492V0.625H34.3742V3.35187L39.2073 8.125H34.3742V11.25H43.7492V8.98375ZM32.4992 8.125H27.4992V3.75H32.4992V0.625H23.7492V11.25H32.4992V8.125Z" fill="#FFF3EE"/>
<path d="M112.23 16.8747L117.285 73.0741L139.965 79.1254L162.709 73.1885L167.769 16.8747H112.23ZM157.256 29.6691L156.939 33.3154L156.8 34.9997H130.194L130.83 42.4997H156.167L155.998 43.8941L154.364 61.9622L154.244 63.0185L140 66.8522V66.8491L139.983 66.8566L125.747 63.1591L124.781 52.4997H131.761L132.255 57.7872L139.996 59.7491L140 59.6029V59.6104L147.757 57.9547L148.567 49.3747H124.47L122.762 30.1022L122.595 28.1247H157.422L157.256 29.6691ZM117.472 1.0166H120.986V4.4891H124.201V1.0166H127.715V11.5304H124.201V8.00973H120.987V11.5304H117.472V1.0166ZM132.336 4.50348H129.242V1.0166H138.945V4.50348H135.85V11.5304H132.336V4.50348ZM140.485 1.0166H144.149L146.404 4.71098L148.655 1.0166H152.321V11.5304H148.82V6.3191L146.404 10.0572H146.342L143.924 6.3191V11.5304H140.485L140.485 1.0166ZM154.07 1.0166H157.585V8.05535H162.527V11.531H154.07V1.0166Z" fill="#FFF3EE"/>
<path d="M201.25 0.625V78.75H279.375V0.625H201.25ZM242.574 67.1956C241.421 69.5388 239.22 71.0781 236.669 71.8213C232.75 72.7213 229.001 72.2081 226.212 70.5344C224.346 69.3894 222.889 67.6269 221.899 65.5963L227.849 61.9525C227.901 61.9744 228.058 62.2569 228.266 62.6219C229.025 63.8931 229.679 64.7931 230.966 65.425C232.229 65.8563 235.004 66.1319 236.075 63.9081C236.729 62.7769 236.521 59.1406 236.521 55.1175C236.521 48.7956 236.55 42.5 236.55 36.25H243.868C243.868 43.125 243.906 49.6363 243.868 56.345C243.884 60.4575 244.241 64.1238 242.574 67.1956ZM272.933 65.1281C270.389 73.8294 256.207 74.1119 250.539 68.3631C249.342 67.01 248.591 66.3031 247.877 64.7412C250.889 63.0087 250.889 63.0087 253.819 61.3131C255.411 63.76 256.883 65.1056 259.531 65.6563C263.124 66.095 266.738 64.8606 265.928 61.045C265.094 57.9287 258.571 57.1706 254.132 53.8381C249.625 50.8112 248.569 43.4562 252.273 39.2537C253.507 37.6994 255.612 36.5394 257.821 35.9819L260.126 35.6838C264.551 35.5944 267.318 36.7631 269.348 39.0306C269.913 39.6031 270.374 40.2206 271.237 41.5588C268.879 43.0613 268.887 43.0469 265.51 45.2331C264.789 43.6794 263.592 42.7044 262.327 42.2806C260.363 41.6856 257.887 42.3325 257.373 44.4075C257.195 45.0469 257.232 45.6419 257.515 46.6981C258.311 48.5125 260.981 49.3012 263.376 50.4019C270.27 53.1981 272.598 56.1963 273.171 59.765C273.722 62.8375 273.038 64.8306 272.933 65.1281Z" fill="#FFF3EE"/>
<path d="M340 35.5C343.21 35.5 345.813 32.8977 345.813 29.6875C345.813 26.4773 343.21 23.875 340 23.875C336.79 23.875 334.188 26.4773 334.188 29.6875C334.188 32.8977 336.79 35.5 340 35.5Z" fill="#FFF3EE"/>
<path d="M340 51.0625C344.563 55.5 349.063 58.125 352.688 58.125C353.875 58.125 355 57.875 355.938 57.3125C359.188 55.4375 360.375 50.75 359.25 44.0625C359.063 42.875 358.812 41.6875 358.5 40.4375C359.75 40.0625 360.875 39.6875 362 39.3125C368.312 36.875 371.813 33.5 371.813 29.8125C371.813 26.0625 368.312 22.6875 362 20.3125C360.875 19.875 359.75 19.5 358.5 19.1875C358.812 17.9375 359.063 16.75 359.25 15.5625C360.313 8.75 359.125 4 355.875 2.125C354.938 1.5625 353.812 1.3125 352.625 1.3125C349.062 1.3125 344.5 3.9375 339.938 8.375C335.438 3.9375 330.938 1.3125 327.313 1.3125C326.125 1.3125 325 1.5625 324.062 2.125C320.812 4 319.625 8.6875 320.75 15.375C320.938 16.5625 321.188 17.75 321.5 19C320.25 19.375 319.125 19.75 318 20.125C311.687 22.5625 308.188 25.9375 308.188 29.625C308.188 33.375 311.687 36.75 318 39.125C319.125 39.5625 320.25 39.9375 321.5 40.25C321.188 41.5 320.938 42.6875 320.75 43.875C319.688 50.5625 320.875 55.3125 324.062 57.125C325 57.6875 326.125 57.9375 327.313 57.9375C330.938 58.0625 335.438 55.4375 340 51.0625ZM336.5 42.625C337.625 42.6875 338.813 42.6875 340 42.6875C341.188 42.6875 342.375 42.6875 343.5 42.625C342.375 44.125 341.188 45.5 340 46.8125C338.813 45.5 337.625 44.125 336.5 42.625ZM328.75 36.1875C329.375 37.25 329.938 38.25 330.625 39.25C328.688 39 326.875 38.6875 325.125 38.3125C325.688 36.625 326.312 34.875 327.062 33.125C327.562 34.125 328.125 35.1875 328.75 36.1875ZM325.125 21.125C326.875 20.75 328.688 20.4375 330.625 20.1875C330 21.1875 329.375 22.1875 328.75 23.25C328.125 24.3125 327.562 25.3125 327.062 26.375C326.25 24.5625 325.625 22.8125 325.125 21.125ZM328.562 29.6875C329.375 28 330.25 26.3125 331.25 24.625C332.188 23 333.25 21.375 334.313 19.75C336.188 19.625 338.063 19.5625 340 19.5625C342 19.5625 343.875 19.625 345.688 19.75C346.812 21.375 347.813 23 348.75 24.625C349.75 26.3125 350.625 28 351.438 29.6875C350.625 31.375 349.75 33.0625 348.75 34.75C347.813 36.375 346.75 38 345.688 39.625C343.812 39.75 341.938 39.8125 340 39.8125C338 39.8125 336.125 39.75 334.313 39.625C333.188 38 332.188 36.375 331.25 34.75C330.25 33.0625 329.375 31.375 328.562 29.6875ZM353 26.3125L351.312 23.1875C350.688 22.125 350.125 21.125 349.438 20.125C351.375 20.375 353.188 20.6875 354.938 21.0625C354.375 22.8125 353.75 24.5625 353 26.3125ZM353 33.0625C353.75 34.8125 354.375 36.5625 354.938 38.25C353.188 38.625 351.375 38.9375 349.438 39.1875C350.062 38.1875 350.688 37.1875 351.312 36.125C351.875 35.1875 352.438 34.125 353 33.0625ZM354.438 54.75C353.937 55.0625 353.312 55.1875 352.625 55.1875C349.562 55.1875 345.75 52.6875 342 48.9375C343.812 47 345.562 44.8125 347.312 42.375C350.25 42.125 353.063 41.6875 355.688 41.0625C356 42.1875 356.187 43.3125 356.375 44.4375C357.25 49.75 356.563 53.5625 354.438 54.75ZM357.688 21.8125C364.688 23.8125 368.875 26.875 368.875 29.6875C368.875 32.125 366 34.5625 360.938 36.5C359.938 36.875 358.813 37.25 357.688 37.5625C356.875 35 355.875 32.375 354.625 29.6875C355.875 27 356.938 24.375 357.688 21.8125ZM352.688 4.1875C353.375 4.1875 353.937 4.3125 354.5 4.625C356.562 5.8125 357.313 9.5625 356.438 14.9375C356.25 16 356 17.125 355.75 18.3125C353.125 17.75 350.313 17.3125 347.375 17C345.688 14.5625 343.875 12.375 342.063 10.4375C345.813 6.75 349.625 4.1875 352.688 4.1875ZM343.5 16.75C342.375 16.6875 341.188 16.6875 340 16.6875C338.813 16.6875 337.625 16.6875 336.5 16.75C337.625 15.25 338.813 13.875 340 12.5625C341.188 13.875 342.375 15.3125 343.5 16.75ZM325.563 4.625C326.063 4.3125 326.687 4.1875 327.375 4.1875C330.437 4.1875 334.25 6.6875 338 10.4375C336.187 12.375 334.437 14.5625 332.687 17C329.75 17.25 326.938 17.6875 324.313 18.3125C324 17.1875 323.812 16.0625 323.625 14.9375C322.75 9.625 323.438 5.875 325.563 4.625ZM322.313 37.5625C315.313 35.5625 311.125 32.5 311.125 29.6875C311.125 27.25 314 24.8125 319.062 22.875C320.062 22.5 321.188 22.125 322.313 21.8125C323.125 24.375 324.125 27 325.375 29.6875C324.125 32.375 323.063 35.0625 322.313 37.5625ZM323.625 44.4375C323.812 43.375 324.063 42.25 324.313 41.0625C326.938 41.625 329.75 42.0625 332.687 42.375C334.375 44.8125 336.187 47 338 48.9375C334.25 52.625 330.437 55.1875 327.375 55.1875C326.687 55.1875 326.125 55.0625 325.563 54.75C323.438 53.5625 322.75 49.75 323.625 44.4375ZM321 70.1875C322.375 68.5 322.438 66.625 321.688 64.75C320.938 62.875 319.375 62 317.437 61.9375C315.125 61.875 312.75 61.9375 310.438 61.9375H310V78.125H311.875V72H314.813C315.188 72 315.5 72.125 315.688 72.4375L319.438 78.25C319.5 78.375 319.688 78.5625 319.813 78.5625H322.25C320.75 76.25 319.312 74.0625 317.812 71.8125C319.125 71.625 320.25 71.1875 321 70.1875ZM311.875 70.0625V63.875H312.562C314 63.875 315.5 63.8125 316.938 63.9375C318.625 64 319.813 65.3125 319.813 67C319.813 68.6875 318.437 70 316.75 70.0625C315.25 70.125 313.75 70.0625 311.875 70.0625ZM336.062 70.875C335.062 66.5 331.062 65.375 328 66.75C325.625 67.8125 324.563 69.875 324.5 72.4375C324.438 74.375 325 76.125 326.5 77.4375C328.188 78.9375 330.25 79.125 332.375 78.75C333.562 78.5 334.625 77.9375 335.437 77.0625C335.125 76.625 334.812 76.1875 334.5 75.8125C332.75 77.3125 330.813 77.8125 328.688 76.8125C327.313 76.125 326.625 74.4375 326.5 73.1875H336.188V72.375C336.25 71.8125 336.187 71.3125 336.062 70.875ZM326.625 71.875C326.437 70 328.313 68 330.375 68C332.75 67.9375 334.25 69.375 334.313 71.875H326.625ZM345.813 66.4375C344.875 66.25 343.875 66.1875 342.937 66.25C341.437 66.375 340.125 67.0625 339.063 68.1875C339.375 68.625 339.625 69.0625 340 69.5625C340.125 69.4375 340.25 69.3125 340.375 69.25C341.375 68.3125 342.563 67.8125 344 67.9375C345.125 68 346.188 68.375 346.5 69.5C346.75 70.375 346.688 71.3125 346.75 72.25C346.563 72.25 346.5 72.1875 346.438 72.125C344.938 70.875 343.25 70.625 341.438 71.0625C339.75 71.5 338.687 72.8125 338.562 74.5C338.437 76.4375 339.312 77.875 341 78.5625C342.063 79 343.25 79 344.375 78.75C345.25 78.5625 345.625 78.0625 346.875 77.375V78.1875H348.625C348.625 75.6875 348.688 72.625 348.625 69.75C348.625 67.9375 347.563 66.8125 345.813 66.4375ZM346.687 74.3125C346.625 74.5 346.687 74.6875 346.687 74.875C346.687 76.1875 346.375 76.625 345.125 77.125C344.25 77.4375 343.313 77.5625 342.375 77.25C341.313 76.9375 340.563 76 340.563 74.9375C340.5 73.875 341.187 72.8125 342.25 72.5C343.687 72 345 72.3125 346.188 73.1875C346.563 73.5 346.812 73.8125 346.687 74.3125ZM356.438 68.125C358.063 67.625 359.563 67.9375 360.688 69.3125L360.875 69.4375C361.313 69.0625 361.688 68.6875 362.188 68.25C362 68.0625 361.938 67.9375 361.813 67.75C360 65.8125 356.438 65.5625 354.25 67.125C351.188 69.375 351.25 73.75 352.75 76.0625C354.188 78.25 356.25 79 358.688 78.6875C360.125 78.5 361.312 77.8125 362.25 76.625C361.813 76.25 361.375 75.875 360.938 75.4375C360.813 75.5625 360.75 75.625 360.688 75.75C359 77.625 356.188 77.4375 354.688 75.4375C353.813 74.25 353.625 72.875 353.875 71.5C354 69.9375 354.813 68.6875 356.438 68.125ZM369.438 76.625C369.312 76.6875 369.25 76.75 369.25 76.75C368.75 77.125 368.25 77.1875 367.688 77C367.125 76.75 367.062 76.25 367 75.75V68.625C367 68.5 367 68.75 367.063 68.125H369.438V66.25H366.938V63.125H365.062V66.5H363.438C363.313 66.5 363.125 66.625 363.125 66.75C363.063 67.1875 363.125 67.5 363.125 68.125H365.125V76.125C365.125 77.125 365.375 78 366.25 78.5C367.188 79.0625 369 78.9375 369.812 78.25C369.937 78.1875 370 77.9375 370 77.875C369.813 77.5 369.625 77.0625 369.438 76.625Z" fill="#FFF3EE"/>
<path d="M407.125 72.2624H405.156V57.0124H414.063V58.8937H407.125V63.9062H413.4V65.7374H407.138V72.2624H407.125ZM417.45 59.2124C417.181 59.4812 416.85 59.6124 416.469 59.6124C416.088 59.6124 415.75 59.4812 415.488 59.2124C415.219 58.9437 415.088 58.6124 415.088 58.2312C415.088 57.8499 415.219 57.5124 415.488 57.2499C415.756 56.9812 416.088 56.8499 416.469 56.8499C416.85 56.8499 417.188 56.9812 417.45 57.2499C417.713 57.5187 417.85 57.8499 417.85 58.2312C417.85 58.6124 417.713 58.9249 417.45 59.2124ZM417.45 72.2624H415.488V61.8249H417.45V72.2624ZM421.544 72.2624H419.581V61.8249H421.463V63.5249H421.544C421.744 62.9562 422.144 62.4937 422.775 62.1249C423.394 61.7562 423.994 61.5749 424.575 61.5749C425.156 61.5749 425.644 61.6562 426.038 61.8249L425.288 63.6562C425.038 63.5562 424.688 63.5062 424.238 63.5062C423.519 63.5062 422.906 63.7874 422.356 64.3562C421.806 64.9249 421.538 65.6562 421.538 66.5562V72.2624H421.544ZM430.769 72.6124C429.188 72.6124 427.906 72.0812 426.925 71.0312C425.944 69.9812 425.444 68.6499 425.444 67.0499C425.444 65.5374 425.925 64.2187 426.875 63.1187C427.844 62.0187 429.056 61.4687 430.556 61.4687C432.106 61.4687 433.338 61.9687 434.269 62.9812C435.2 63.9999 435.669 65.3437 435.669 67.0249L435.65 67.3937H427.406C427.456 68.4437 427.825 69.2749 428.456 69.8937C429.106 70.5124 429.856 70.8124 430.719 70.8124C432.119 70.8124 433.081 70.2124 433.581 69.0124L435.331 69.7437C435 70.5624 434.431 71.2249 433.65 71.7749C432.869 72.3312 431.9 72.6124 430.769 72.6124ZM433.588 65.7874C433.538 65.1874 433.269 64.6187 432.769 64.0874C432.269 63.5562 431.519 63.2687 430.519 63.2687C429.788 63.2687 429.169 63.4999 428.638 63.9499C428.106 64.3999 427.738 65.0187 427.538 65.7812L433.588 65.7874ZM442.563 72.6124C441.763 72.6124 441.05 72.4437 440.413 72.0937C439.781 71.7624 439.313 71.3249 439 70.8124H438.919V72.2624H437.038V57.0124H439V61.8249L438.919 63.2749H439C439.319 62.7562 439.781 62.3437 440.413 61.9937C441.044 61.6624 441.763 61.4749 442.563 61.4749C443.913 61.4749 445.075 62.0062 446.063 63.0749C447.044 64.1437 447.525 65.4562 447.525 67.0374C447.525 68.6187 447.044 69.9374 446.063 70.9999C445.075 72.0812 443.913 72.6124 442.563 72.6124ZM442.225 70.8187C443.144 70.8187 443.925 70.4687 444.575 69.7874C445.225 69.1062 445.556 68.1874 445.556 67.0562C445.556 65.9249 445.225 65.0062 444.575 64.3249C443.925 63.6437 443.144 63.2937 442.225 63.2937C441.306 63.2937 440.513 63.6249 439.875 64.3124C439.244 64.9937 438.906 65.9124 438.906 67.0624C438.906 68.2124 439.225 69.1249 439.875 69.8124C440.531 70.4812 441.313 70.8187 442.225 70.8187ZM452.4 72.6124C451.281 72.6124 450.369 72.2937 449.619 71.6437C448.869 71.0124 448.5 70.1624 448.5 69.1124C448.5 67.9812 448.931 67.0812 449.813 66.4312C450.694 65.7812 451.775 65.4624 453.075 65.4624C454.225 65.4624 455.175 65.6812 455.906 66.0937V65.7937C455.906 65.0249 455.638 64.4124 455.125 63.9437C454.594 63.4749 453.956 63.2437 453.194 63.2437C452.625 63.2437 452.113 63.3749 451.644 63.6437C451.175 63.9124 450.863 64.2749 450.694 64.7624L448.894 63.9937C449.144 63.3624 449.613 62.7937 450.325 62.2624C451.044 61.7312 451.975 61.4624 453.138 61.4624C454.469 61.4624 455.588 61.8437 456.469 62.6312C457.35 63.4124 457.781 64.5124 457.781 65.9312V72.2562H455.9V70.8062H455.819C455.05 72.0124 453.9 72.6124 452.4 72.6124ZM452.719 70.8187C453.538 70.8187 454.269 70.5187 454.919 69.9187C455.588 69.3187 455.919 68.6062 455.919 67.7687C455.369 67.3187 454.538 67.0874 453.419 67.0874C452.469 67.0874 451.756 67.2874 451.269 67.7062C450.788 68.1249 450.538 68.6062 450.538 69.1562C450.538 69.6749 450.756 70.0749 451.206 70.3749C451.65 70.6687 452.15 70.8187 452.719 70.8187ZM463.244 72.6124C462.075 72.6124 461.113 72.3312 460.363 71.7624C459.621 71.2206 459.045 70.4825 458.7 69.6312L460.45 68.8999C461 70.2124 461.95 70.8624 463.281 70.8624C463.9 70.8624 464.4 70.7312 464.781 70.4624C465.163 70.1937 465.363 69.8312 465.363 69.3937C465.363 68.7124 464.881 68.2437 463.931 68.0124L461.813 67.4999C461.144 67.3312 460.513 66.9999 459.913 66.5312C459.313 66.0499 459.013 65.4124 459.013 64.5999C459.013 63.6812 459.431 62.9374 460.244 62.3499C461.063 61.7687 462.025 61.4812 463.156 61.4812C464.075 61.4812 464.906 61.6999 465.619 62.1124C466.35 62.5312 466.869 63.1312 467.169 63.9124L465.469 64.6124C465.088 63.6937 464.288 63.2312 463.088 63.2312C462.506 63.2312 462.019 63.3499 461.625 63.5999C461.225 63.8499 461.025 64.1687 461.025 64.5812C461.025 65.1812 461.494 65.5812 462.406 65.7999L464.469 66.2812C465.45 66.5124 466.169 66.8999 466.65 67.4499C467.119 67.9999 467.35 68.6312 467.35 69.3312C467.35 70.2624 466.969 71.0437 466.2 71.6812C465.444 72.3124 464.456 72.6124 463.244 72.6124ZM473.488 72.6124C471.906 72.6124 470.625 72.0812 469.644 71.0312C468.663 69.9812 468.163 68.6499 468.163 67.0499C468.163 65.5374 468.644 64.2187 469.594 63.1187C470.563 62.0187 471.775 61.4687 473.275 61.4687C474.825 61.4687 476.056 61.9687 476.988 62.9812C477.919 63.9999 478.388 65.3437 478.388 67.0249L478.369 67.3937H470.125C470.175 68.4437 470.544 69.2749 471.175 69.8937C471.825 70.5124 472.575 70.8124 473.438 70.8124C474.838 70.8124 475.8 70.2124 476.3 69.0124L478.05 69.7437C477.719 70.5624 477.15 71.2249 476.369 71.7749C475.581 72.3312 474.619 72.6124 473.488 72.6124ZM476.3 65.7874C476.25 65.1874 475.981 64.6187 475.481 64.0874C474.981 63.5562 474.231 63.2687 473.231 63.2687C472.5 63.2687 471.881 63.4999 471.35 63.9499C470.819 64.3999 470.45 65.0187 470.25 65.7812L476.3 65.7874ZM424.531 37.1374L429.338 6.33743C429.506 5.28743 430.913 5.03743 431.406 5.98118L436.569 15.6499L424.531 37.1374ZM458.7 44.6187L454.113 16.2499C453.975 15.3687 452.869 15.0062 452.231 15.6437L423.344 44.6187L439.338 53.5937C440.331 54.1437 441.575 54.1437 442.569 53.5937L458.7 44.6187ZM445.713 19.8749L442.013 12.8312C441.6 12.0312 440.469 12.0312 440.05 12.8312L423.781 41.8312L445.713 19.8749Z" fill="#FFF3EE"/>
<path fill-rule="evenodd" clip-rule="evenodd" d="M540.058 78.8901C561.48 78.8576 578.821 61.432 578.821 39.937C578.821 18.7913 561.56 1.37633 540.938 1.0082C519.281 0.621951 501.183 18.1957 501.178 39.5063C501.171 61.4307 518.435 78.9213 540.058 78.8901ZM539.995 2.89383C560.562 2.88695 576.949 19.597 576.943 40.5688C576.936 60.3682 560.115 76.9313 540.01 76.9357C519.528 76.9401 503.057 60.3338 503.058 39.6807C503.059 19.5601 519.786 2.9007 539.995 2.89383ZM524.473 22.4351C524.809 23.5557 523.868 23.9457 522.867 24.0238C521.814 24.1051 520.761 24.1845 519.539 24.2776C523.574 36.2988 527.548 48.142 531.617 60.2607C531.907 59.7863 532.026 59.6526 532.079 59.4963C534.313 52.8201 536.559 46.1482 538.736 39.4532C538.935 38.8426 538.836 38.0338 538.618 37.4063C537.466 34.0813 536.086 30.8288 535.076 27.4638C534.386 25.1601 533.47 23.6695 530.746 23.9363C530.283 23.982 529.716 22.9838 529.197 22.4682C529.825 22.0932 530.449 21.4032 531.083 21.3938C536.628 21.3086 542.174 21.3103 547.719 21.3988C548.355 21.4095 548.979 22.1176 549.607 22.502C549.057 23.0045 548.583 23.7582 547.94 23.9526C546.908 24.2638 545.763 24.2051 544.528 24.3151L556.621 60.2901C558.453 54.2051 560.158 48.6176 561.815 43.0157C563.294 38.0151 562.413 33.3451 559.739 28.9407C558.935 27.6163 557.948 26.3313 557.492 24.887C556.975 23.2438 556.545 21.3732 556.819 19.7251C557.285 16.932 559.428 15.5451 562.328 15.2795C546.458 0.550702 521.519 5.8232 512.33 21.8263C515.867 21.6632 519.245 21.4488 522.625 21.4026C523.263 21.3945 524.323 21.9345 524.473 22.4351ZM530.796 71.167C530.722 71.3826 530.718 71.6226 530.66 71.9807C537.499 73.877 544.206 73.7401 551.071 71.427L540.584 42.702C537.228 52.4588 534.009 61.8113 530.796 71.167ZM525.511 69.8682L509.71 26.5245C502.582 40.4482 508.005 61.692 525.511 69.8682ZM573.278 42.017C573.78 35.4332 571.508 26.3176 569.547 25.0638C569.328 27.4857 569.481 30.1801 568.786 32.6351C567.15 38.4195 565.15 44.1032 563.224 49.8026C561.13 55.9976 558.954 62.1645 556.813 68.3438C566.871 62.382 572.398 53.5826 573.278 42.017Z" fill="#FFF3EE"/>
<g clip-path="url(#clip0_237_450)">
<path d="M628.438 80.625C635.875 80.625 641.875 74.625 641.875 67.1875V53.75H628.438C621 53.75 615 59.75 615 67.1875C615 74.625 621 80.625 628.438 80.625ZM615 40.3125C615 32.875 621 26.875 628.438 26.875H641.875V53.75H628.438C621 53.75 615 47.75 615 40.3125ZM615 13.4375C615 6 621 0 628.438 0H641.875V26.875H628.438C621 26.875 615 20.875 615 13.4375ZM641.875 0H655.312C662.75 0 668.75 6 668.75 13.4375C668.75 20.875 662.75 26.875 655.312 26.875H641.875V0ZM668.75 40.3125C668.75 47.75 662.75 53.75 655.312 53.75C647.875 53.75 641.875 47.75 641.875 40.3125C641.875 32.875 647.875 26.875 655.312 26.875C662.75 26.875 668.75 32.875 668.75 40.3125Z" fill="#FFF3EE"/>
</g>
<g clip-path="url(#clip1_237_450)">
<path d="M779.375 2.0625C779.375 0.75 779.375 0.625 778.125 0.625H702.188C700.938 0.625 700.625 0.75 700.625 2V77.9375C700.625 79.1875 700.813 79.1875 702 79.1875H778.125C779.125 79.1875 779.375 78.9375 779.375 77.9375C779.312 65.3125 779.375 52.625 779.375 40V2.0625ZM736.688 58.75L730.625 45.125L724.25 58.75H717.25L726.312 40.4375L717.875 21.0625L725.062 21.125L730.375 33.8125L736.875 21.0625H743.625L734.5 39.4375L743.562 58.75H736.688ZM763.938 21.75V57.125C763.938 58.0625 763.812 58.625 762.875 58.6875C758.5 59.25 754.125 59.875 749.812 58.625C745.125 57.3125 742.437 53.625 742.25 48.5625C742 42.3125 744.375 38 749 36C751.875 34.75 754.812 34.6875 758.125 35V21.125H763.938V21.75ZM751.75 53.875C753.813 54.4375 755.875 54.25 758 53.875V41.375C758 41.1875 757.75 40.8125 757.562 40.75C755.25 40.375 752.875 40.375 750.687 41.5625C748.437 42.8125 747.25 45.4375 747.5 48.5C747.688 51.3125 749.188 53.125 751.75 53.875Z" fill="#FFF3EE"/>
</g>
<defs>
<clipPath id="clip0_237_450">
<rect width="80" height="80" fill="white" transform="translate(600)"/>
</clipPath>
<clipPath id="clip1_237_450">
<rect width="80" height="80" fill="white" transform="translate(700)"/>
</clipPath>
</defs>
</svg>
